<mxfile host="Electron" agent="Mozilla/5.0 (Macintosh; Intel Mac OS X 10_15_7) AppleWebKit/537.36 (KHTML, like Gecko) draw.io/27.0.5 Chrome/134.0.6998.205 Electron/35.3.0 Safari/537.36" version="27.0.5" pages="6">
  <diagram name="Basic-Info-Case-1" id="2YBvvXClWsGukQMizWep">
    <mxGraphModel dx="1463" dy="872" grid="1" gridSize="10" guides="1" tooltips="1" connect="1" arrows="1" fold="1" page="1" pageScale="1" pageWidth="850" pageHeight="1100" math="0" shadow="0">
      <root>
        <mxCell id="0" />
        <mxCell id="1" parent="0" />
        <mxCell id="aM9ryv3xv72pqoxQDRHE-5" value="AuthController" style="shape=umlLifeline;perimeter=lifelinePerimeter;whiteSpace=wrap;html=1;container=0;dropTarget=0;collapsible=0;recursiveResize=0;outlineConnect=0;portConstraint=eastwest;newEdgeStyle={&quot;edgeStyle&quot;:&quot;elbowEdgeStyle&quot;,&quot;elbow&quot;:&quot;vertical&quot;,&quot;curved&quot;:0,&quot;rounded&quot;:0};" parent="1" vertex="1">
          <mxGeometry x="300" y="80" width="100" height="840" as="geometry" />
        </mxCell>
        <mxCell id="5HUnKJink3GopcRTdAmp-26" value="" style="html=1;points=[[0,0,0,0,5],[0,1,0,0,-5],[1,0,0,0,5],[1,1,0,0,-5]];perimeter=orthogonalPerimeter;outlineConnect=0;targetShapes=umlLifeline;portConstraint=eastwest;newEdgeStyle={&quot;curved&quot;:0,&quot;rounded&quot;:0};" parent="aM9ryv3xv72pqoxQDRHE-5" vertex="1">
          <mxGeometry x="45" y="70" width="10" height="730" as="geometry" />
        </mxCell>
        <mxCell id="5HUnKJink3GopcRTdAmp-2" value="AuthService" style="shape=umlLifeline;perimeter=lifelinePerimeter;whiteSpace=wrap;html=1;container=0;dropTarget=0;collapsible=0;recursiveResize=0;outlineConnect=0;portConstraint=eastwest;newEdgeStyle={&quot;edgeStyle&quot;:&quot;elbowEdgeStyle&quot;,&quot;elbow&quot;:&quot;vertical&quot;,&quot;curved&quot;:0,&quot;rounded&quot;:0};" parent="1" vertex="1">
          <mxGeometry x="631" y="81" width="100" height="839" as="geometry" />
        </mxCell>
        <mxCell id="5HUnKJink3GopcRTdAmp-30" value="" style="html=1;points=[[0,0,0,0,5],[0,1,0,0,-5],[1,0,0,0,5],[1,1,0,0,-5]];perimeter=orthogonalPerimeter;outlineConnect=0;targetShapes=umlLifeline;portConstraint=eastwest;newEdgeStyle={&quot;curved&quot;:0,&quot;rounded&quot;:0};" parent="5HUnKJink3GopcRTdAmp-2" vertex="1">
          <mxGeometry x="45" y="98" width="10" height="632" as="geometry" />
        </mxCell>
        <mxCell id="5HUnKJink3GopcRTdAmp-68" value="" style="html=1;points=[[0,0,0,0,5],[0,1,0,0,-5],[1,0,0,0,5],[1,1,0,0,-5]];perimeter=orthogonalPerimeter;outlineConnect=0;targetShapes=umlLifeline;portConstraint=eastwest;newEdgeStyle={&quot;curved&quot;:0,&quot;rounded&quot;:0};" parent="5HUnKJink3GopcRTdAmp-2" vertex="1">
          <mxGeometry x="50" y="480" width="10" height="115" as="geometry" />
        </mxCell>
        <mxCell id="5HUnKJink3GopcRTdAmp-69" value="11. create email authentication provider" style="html=1;align=left;spacingLeft=2;endArrow=block;rounded=0;edgeStyle=orthogonalEdgeStyle;curved=0;rounded=0;" parent="5HUnKJink3GopcRTdAmp-2" target="5HUnKJink3GopcRTdAmp-68" edge="1">
          <mxGeometry relative="1" as="geometry">
            <mxPoint x="55" y="460" as="sourcePoint" />
            <Array as="points">
              <mxPoint x="85" y="490" />
            </Array>
          </mxGeometry>
        </mxCell>
        <mxCell id="5HUnKJink3GopcRTdAmp-25" value="" style="shape=umlLifeline;perimeter=lifelinePerimeter;whiteSpace=wrap;html=1;container=1;dropTarget=0;collapsible=0;recursiveResize=0;outlineConnect=0;portConstraint=eastwest;newEdgeStyle={&quot;curved&quot;:0,&quot;rounded&quot;:0};participant=umlActor;" parent="1" vertex="1">
          <mxGeometry x="33" y="80" width="20" height="840" as="geometry" />
        </mxCell>
        <mxCell id="5HUnKJink3GopcRTdAmp-45" value="" style="html=1;points=[[0,0,0,0,5],[0,1,0,0,-5],[1,0,0,0,5],[1,1,0,0,-5]];perimeter=orthogonalPerimeter;outlineConnect=0;targetShapes=umlLifeline;portConstraint=eastwest;newEdgeStyle={&quot;curved&quot;:0,&quot;rounded&quot;:0};" parent="5HUnKJink3GopcRTdAmp-25" vertex="1">
          <mxGeometry x="5" y="70" width="10" height="730" as="geometry" />
        </mxCell>
        <mxCell id="5HUnKJink3GopcRTdAmp-27" value="1. fill name and password click on register" style="html=1;verticalAlign=bottom;endArrow=block;curved=0;rounded=0;entryX=0;entryY=0;entryDx=0;entryDy=5;exitX=1;exitY=0;exitDx=0;exitDy=5;exitPerimeter=0;" parent="1" source="5HUnKJink3GopcRTdAmp-45" target="5HUnKJink3GopcRTdAmp-26" edge="1">
          <mxGeometry relative="1" as="geometry">
            <mxPoint x="80" y="155" as="sourcePoint" />
          </mxGeometry>
        </mxCell>
        <mxCell id="5HUnKJink3GopcRTdAmp-31" value="2. register by email" style="html=1;verticalAlign=bottom;endArrow=block;curved=0;rounded=0;entryX=0;entryY=0;entryDx=0;entryDy=5;" parent="1" source="5HUnKJink3GopcRTdAmp-26" target="5HUnKJink3GopcRTdAmp-30" edge="1">
          <mxGeometry relative="1" as="geometry">
            <mxPoint x="460" y="165" as="sourcePoint" />
          </mxGeometry>
        </mxCell>
        <mxCell id="5HUnKJink3GopcRTdAmp-49" value="Database" style="shape=umlLifeline;perimeter=lifelinePerimeter;whiteSpace=wrap;html=1;container=0;dropTarget=0;collapsible=0;recursiveResize=0;outlineConnect=0;portConstraint=eastwest;newEdgeStyle={&quot;edgeStyle&quot;:&quot;elbowEdgeStyle&quot;,&quot;elbow&quot;:&quot;vertical&quot;,&quot;curved&quot;:0,&quot;rounded&quot;:0};" parent="1" vertex="1">
          <mxGeometry x="1330" y="80" width="100" height="840" as="geometry" />
        </mxCell>
        <mxCell id="5HUnKJink3GopcRTdAmp-65" value="" style="html=1;points=[[0,0,0,0,5],[0,1,0,0,-5],[1,0,0,0,5],[1,1,0,0,-5]];perimeter=orthogonalPerimeter;outlineConnect=0;targetShapes=umlLifeline;portConstraint=eastwest;newEdgeStyle={&quot;curved&quot;:0,&quot;rounded&quot;:0};" parent="5HUnKJink3GopcRTdAmp-49" vertex="1">
          <mxGeometry x="45" y="328" width="10" height="70" as="geometry" />
        </mxCell>
        <mxCell id="5HUnKJink3GopcRTdAmp-72" value="" style="html=1;points=[[0,0,0,0,5],[0,1,0,0,-5],[1,0,0,0,5],[1,1,0,0,-5]];perimeter=orthogonalPerimeter;outlineConnect=0;targetShapes=umlLifeline;portConstraint=eastwest;newEdgeStyle={&quot;curved&quot;:0,&quot;rounded&quot;:0};" parent="5HUnKJink3GopcRTdAmp-49" vertex="1">
          <mxGeometry x="45" y="515" width="10" height="70" as="geometry" />
        </mxCell>
        <mxCell id="5HUnKJink3GopcRTdAmp-56" value="UserService" style="shape=umlLifeline;perimeter=lifelinePerimeter;whiteSpace=wrap;html=1;container=1;dropTarget=0;collapsible=0;recursiveResize=0;outlineConnect=0;portConstraint=eastwest;newEdgeStyle={&quot;curved&quot;:0,&quot;rounded&quot;:0};" parent="1" vertex="1">
          <mxGeometry x="970" y="80" width="100" height="840" as="geometry" />
        </mxCell>
        <mxCell id="5HUnKJink3GopcRTdAmp-63" value="" style="html=1;points=[[0,0,0,0,5],[0,1,0,0,-5],[1,0,0,0,5],[1,1,0,0,-5]];perimeter=orthogonalPerimeter;outlineConnect=0;targetShapes=umlLifeline;portConstraint=eastwest;newEdgeStyle={&quot;curved&quot;:0,&quot;rounded&quot;:0};" parent="5HUnKJink3GopcRTdAmp-56" vertex="1">
          <mxGeometry x="45" y="299" width="10" height="126" as="geometry" />
        </mxCell>
        <mxCell id="5HUnKJink3GopcRTdAmp-59" value="" style="html=1;points=[[0,0,0,0,5],[0,1,0,0,-5],[1,0,0,0,5],[1,1,0,0,-5]];perimeter=orthogonalPerimeter;outlineConnect=0;targetShapes=umlLifeline;portConstraint=eastwest;newEdgeStyle={&quot;curved&quot;:0,&quot;rounded&quot;:0};" parent="5HUnKJink3GopcRTdAmp-56" vertex="1">
          <mxGeometry x="405" y="145" width="10" height="70" as="geometry" />
        </mxCell>
        <mxCell id="5HUnKJink3GopcRTdAmp-58" value="" style="html=1;points=[[0,0,0,0,5],[0,1,0,0,-5],[1,0,0,0,5],[1,1,0,0,-5]];perimeter=orthogonalPerimeter;outlineConnect=0;targetShapes=umlLifeline;portConstraint=eastwest;newEdgeStyle={&quot;curved&quot;:0,&quot;rounded&quot;:0};" parent="5HUnKJink3GopcRTdAmp-56" vertex="1">
          <mxGeometry x="45" y="120" width="10" height="130" as="geometry" />
        </mxCell>
        <mxCell id="5HUnKJink3GopcRTdAmp-57" value="3. find user by email" style="html=1;verticalAlign=bottom;endArrow=block;curved=0;rounded=0;exitX=1;exitY=0.488;exitDx=0;exitDy=0;exitPerimeter=0;" parent="5HUnKJink3GopcRTdAmp-56" edge="1">
          <mxGeometry width="80" relative="1" as="geometry">
            <mxPoint x="-284" y="134.4960000000001" as="sourcePoint" />
            <mxPoint x="45" y="134.4960000000001" as="targetPoint" />
          </mxGeometry>
        </mxCell>
        <mxCell id="5HUnKJink3GopcRTdAmp-60" value="4. find user by email" style="html=1;verticalAlign=bottom;endArrow=block;curved=0;rounded=0;entryX=0;entryY=0.2;entryDx=0;entryDy=0;entryPerimeter=0;" parent="5HUnKJink3GopcRTdAmp-56" source="5HUnKJink3GopcRTdAmp-58" target="5HUnKJink3GopcRTdAmp-59" edge="1">
          <mxGeometry width="80" relative="1" as="geometry">
            <mxPoint x="60" y="160" as="sourcePoint" />
            <mxPoint x="380" y="159" as="targetPoint" />
          </mxGeometry>
        </mxCell>
        <mxCell id="5HUnKJink3GopcRTdAmp-61" value="5. user not found" style="html=1;verticalAlign=bottom;endArrow=open;dashed=1;endSize=8;curved=0;rounded=0;" parent="5HUnKJink3GopcRTdAmp-56" target="5HUnKJink3GopcRTdAmp-58" edge="1">
          <mxGeometry relative="1" as="geometry">
            <mxPoint x="400" y="204" as="sourcePoint" />
            <mxPoint x="50" y="204" as="targetPoint" />
          </mxGeometry>
        </mxCell>
        <mxCell id="5HUnKJink3GopcRTdAmp-62" value="6. user not found" style="html=1;verticalAlign=bottom;endArrow=open;dashed=1;endSize=8;curved=0;rounded=0;exitX=-0.1;exitY=0.908;exitDx=0;exitDy=0;exitPerimeter=0;" parent="5HUnKJink3GopcRTdAmp-56" source="5HUnKJink3GopcRTdAmp-58" edge="1">
          <mxGeometry relative="1" as="geometry">
            <mxPoint x="40" y="240" as="sourcePoint" />
            <mxPoint x="-284" y="238.03999999999996" as="targetPoint" />
          </mxGeometry>
        </mxCell>
        <mxCell id="5HUnKJink3GopcRTdAmp-64" value="7. create user" style="html=1;verticalAlign=bottom;endArrow=block;curved=0;rounded=0;entryX=0;entryY=0.138;entryDx=0;entryDy=0;entryPerimeter=0;exitX=1.2;exitY=0.703;exitDx=0;exitDy=0;exitPerimeter=0;" parent="1" edge="1">
          <mxGeometry width="80" relative="1" as="geometry">
            <mxPoint x="688" y="386.02599999999984" as="sourcePoint" />
            <mxPoint x="1015" y="390.70000000000005" as="targetPoint" />
          </mxGeometry>
        </mxCell>
        <mxCell id="5HUnKJink3GopcRTdAmp-66" value="8. save user" style="html=1;verticalAlign=bottom;endArrow=block;curved=0;rounded=0;exitX=1;exitY=0.462;exitDx=0;exitDy=0;exitPerimeter=0;" parent="1" edge="1">
          <mxGeometry width="80" relative="1" as="geometry">
            <mxPoint x="1025" y="419.29999999999995" as="sourcePoint" />
            <mxPoint x="1375" y="419.29999999999995" as="targetPoint" />
          </mxGeometry>
        </mxCell>
        <mxCell id="5HUnKJink3GopcRTdAmp-67" value="9. saved user" style="html=1;verticalAlign=bottom;endArrow=open;dashed=1;endSize=8;curved=0;rounded=0;exitX=-0.1;exitY=0.843;exitDx=0;exitDy=0;exitPerimeter=0;" parent="1" source="5HUnKJink3GopcRTdAmp-65" edge="1">
          <mxGeometry relative="1" as="geometry">
            <mxPoint x="1370" y="471" as="sourcePoint" />
            <mxPoint x="1025" y="467.01" as="targetPoint" />
          </mxGeometry>
        </mxCell>
        <mxCell id="5HUnKJink3GopcRTdAmp-70" value="10. saved user" style="html=1;verticalAlign=bottom;endArrow=open;dashed=1;endSize=8;curved=0;rounded=0;" parent="1" edge="1">
          <mxGeometry relative="1" as="geometry">
            <mxPoint x="1010" y="495" as="sourcePoint" />
            <mxPoint x="686" y="495" as="targetPoint" />
          </mxGeometry>
        </mxCell>
        <mxCell id="5HUnKJink3GopcRTdAmp-71" value="12. save email authentication provider" style="html=1;verticalAlign=bottom;endArrow=block;curved=0;rounded=0;" parent="1" edge="1">
          <mxGeometry width="80" relative="1" as="geometry">
            <mxPoint x="691" y="605" as="sourcePoint" />
            <mxPoint x="1379.5" y="605" as="targetPoint" />
          </mxGeometry>
        </mxCell>
        <mxCell id="5HUnKJink3GopcRTdAmp-73" value="13. saved email authentication provider" style="html=1;verticalAlign=bottom;endArrow=open;dashed=1;endSize=8;curved=0;rounded=0;" parent="1" target="5HUnKJink3GopcRTdAmp-68" edge="1">
          <mxGeometry relative="1" as="geometry">
            <mxPoint x="1370" y="655" as="sourcePoint" />
            <mxPoint x="760" y="655" as="targetPoint" />
          </mxGeometry>
        </mxCell>
        <mxCell id="5HUnKJink3GopcRTdAmp-74" value="MailService" style="shape=umlLifeline;perimeter=lifelinePerimeter;whiteSpace=wrap;html=1;container=1;dropTarget=0;collapsible=0;recursiveResize=0;outlineConnect=0;portConstraint=eastwest;newEdgeStyle={&quot;curved&quot;:0,&quot;rounded&quot;:0};" parent="1" vertex="1">
          <mxGeometry x="1587" y="80" width="100" height="840" as="geometry" />
        </mxCell>
        <mxCell id="5HUnKJink3GopcRTdAmp-76" value="" style="html=1;points=[[0,0,0,0,5],[0,1,0,0,-5],[1,0,0,0,5],[1,1,0,0,-5]];perimeter=orthogonalPerimeter;outlineConnect=0;targetShapes=umlLifeline;portConstraint=eastwest;newEdgeStyle={&quot;curved&quot;:0,&quot;rounded&quot;:0};" parent="5HUnKJink3GopcRTdAmp-74" vertex="1">
          <mxGeometry x="45" y="652" width="10" height="53" as="geometry" />
        </mxCell>
        <mxCell id="5HUnKJink3GopcRTdAmp-75" value="14. send activation code email" style="html=1;verticalAlign=bottom;endArrow=block;curved=0;rounded=0;" parent="1" edge="1">
          <mxGeometry width="80" relative="1" as="geometry">
            <mxPoint x="681" y="745" as="sourcePoint" />
            <mxPoint x="1636.5" y="745" as="targetPoint" />
          </mxGeometry>
        </mxCell>
        <mxCell id="5HUnKJink3GopcRTdAmp-77" value="15. registration data" style="html=1;verticalAlign=bottom;endArrow=open;dashed=1;endSize=8;curved=0;rounded=0;" parent="1" edge="1">
          <mxGeometry relative="1" as="geometry">
            <mxPoint x="681" y="795" as="sourcePoint" />
            <mxPoint x="349.5" y="795" as="targetPoint" />
          </mxGeometry>
        </mxCell>
        <mxCell id="5HUnKJink3GopcRTdAmp-78" value="16. show success message and send to activate email" style="html=1;verticalAlign=bottom;endArrow=open;dashed=1;endSize=8;curved=0;rounded=0;" parent="1" edge="1">
          <mxGeometry relative="1" as="geometry">
            <mxPoint x="350" y="845" as="sourcePoint" />
            <mxPoint x="42.5" y="845" as="targetPoint" />
          </mxGeometry>
        </mxCell>
        <mxCell id="5HUnKJink3GopcRTdAmp-79" value="Registration by email user does not exists" style="text;html=1;align=center;verticalAlign=middle;resizable=0;points=[];autosize=1;strokeColor=none;fillColor=none;fontSize=16;fontStyle=1" parent="1" vertex="1">
          <mxGeometry x="10" width="320" height="30" as="geometry" />
        </mxCell>
      </root>
    </mxGraphModel>
  </diagram>
  <diagram id="IYWORL1XvOh5RHkwZhHt" name="Basic-Info-Case-2">
    <mxGraphModel dx="1463" dy="872" grid="1" gridSize="10" guides="1" tooltips="1" connect="1" arrows="1" fold="1" page="1" pageScale="1" pageWidth="850" pageHeight="1100" math="0" shadow="0">
      <root>
        <mxCell id="0" />
        <mxCell id="1" parent="0" />
        <mxCell id="ZDR5Yv0yb0PBUt2VHhqk-1" value="AuthController" style="shape=umlLifeline;perimeter=lifelinePerimeter;whiteSpace=wrap;html=1;container=0;dropTarget=0;collapsible=0;recursiveResize=0;outlineConnect=0;portConstraint=eastwest;newEdgeStyle={&quot;edgeStyle&quot;:&quot;elbowEdgeStyle&quot;,&quot;elbow&quot;:&quot;vertical&quot;,&quot;curved&quot;:0,&quot;rounded&quot;:0};" parent="1" vertex="1">
          <mxGeometry x="300" y="80" width="100" height="800" as="geometry" />
        </mxCell>
        <mxCell id="ZDR5Yv0yb0PBUt2VHhqk-2" value="" style="html=1;points=[[0,0,0,0,5],[0,1,0,0,-5],[1,0,0,0,5],[1,1,0,0,-5]];perimeter=orthogonalPerimeter;outlineConnect=0;targetShapes=umlLifeline;portConstraint=eastwest;newEdgeStyle={&quot;curved&quot;:0,&quot;rounded&quot;:0};" parent="ZDR5Yv0yb0PBUt2VHhqk-1" vertex="1">
          <mxGeometry x="45" y="70" width="10" height="700" as="geometry" />
        </mxCell>
        <mxCell id="ZDR5Yv0yb0PBUt2VHhqk-3" value="AuthService" style="shape=umlLifeline;perimeter=lifelinePerimeter;whiteSpace=wrap;html=1;container=0;dropTarget=0;collapsible=0;recursiveResize=0;outlineConnect=0;portConstraint=eastwest;newEdgeStyle={&quot;edgeStyle&quot;:&quot;elbowEdgeStyle&quot;,&quot;elbow&quot;:&quot;vertical&quot;,&quot;curved&quot;:0,&quot;rounded&quot;:0};" parent="1" vertex="1">
          <mxGeometry x="631" y="81" width="100" height="799" as="geometry" />
        </mxCell>
        <mxCell id="ZDR5Yv0yb0PBUt2VHhqk-4" value="" style="html=1;points=[[0,0,0,0,5],[0,1,0,0,-5],[1,0,0,0,5],[1,1,0,0,-5]];perimeter=orthogonalPerimeter;outlineConnect=0;targetShapes=umlLifeline;portConstraint=eastwest;newEdgeStyle={&quot;curved&quot;:0,&quot;rounded&quot;:0};" parent="ZDR5Yv0yb0PBUt2VHhqk-3" vertex="1">
          <mxGeometry x="45" y="98" width="10" height="612" as="geometry" />
        </mxCell>
        <mxCell id="ZDR5Yv0yb0PBUt2VHhqk-5" value="" style="html=1;points=[[0,0,0,0,5],[0,1,0,0,-5],[1,0,0,0,5],[1,1,0,0,-5]];perimeter=orthogonalPerimeter;outlineConnect=0;targetShapes=umlLifeline;portConstraint=eastwest;newEdgeStyle={&quot;curved&quot;:0,&quot;rounded&quot;:0};" parent="ZDR5Yv0yb0PBUt2VHhqk-3" vertex="1">
          <mxGeometry x="50" y="452" width="10" height="115" as="geometry" />
        </mxCell>
        <mxCell id="ZDR5Yv0yb0PBUt2VHhqk-6" value="10. create email authentication provider" style="html=1;align=left;spacingLeft=2;endArrow=block;rounded=0;edgeStyle=orthogonalEdgeStyle;curved=0;rounded=0;" parent="ZDR5Yv0yb0PBUt2VHhqk-3" target="ZDR5Yv0yb0PBUt2VHhqk-5" edge="1">
          <mxGeometry relative="1" as="geometry">
            <mxPoint x="55" y="432" as="sourcePoint" />
            <Array as="points">
              <mxPoint x="85" y="462" />
            </Array>
          </mxGeometry>
        </mxCell>
        <mxCell id="ZDR5Yv0yb0PBUt2VHhqk-31" value="" style="html=1;points=[[0,0,0,0,5],[0,1,0,0,-5],[1,0,0,0,5],[1,1,0,0,-5]];perimeter=orthogonalPerimeter;outlineConnect=0;targetShapes=umlLifeline;portConstraint=eastwest;newEdgeStyle={&quot;curved&quot;:0,&quot;rounded&quot;:0};" parent="ZDR5Yv0yb0PBUt2VHhqk-3" vertex="1">
          <mxGeometry x="50" y="299" width="10" height="40" as="geometry" />
        </mxCell>
        <mxCell id="ZDR5Yv0yb0PBUt2VHhqk-32" value="7. find authentication provider" style="html=1;align=left;spacingLeft=2;endArrow=block;rounded=0;edgeStyle=orthogonalEdgeStyle;curved=0;rounded=0;" parent="ZDR5Yv0yb0PBUt2VHhqk-3" target="ZDR5Yv0yb0PBUt2VHhqk-31" edge="1">
          <mxGeometry relative="1" as="geometry">
            <mxPoint x="55" y="279" as="sourcePoint" />
            <Array as="points">
              <mxPoint x="85" y="309" />
            </Array>
          </mxGeometry>
        </mxCell>
        <mxCell id="ZDR5Yv0yb0PBUt2VHhqk-7" value="" style="shape=umlLifeline;perimeter=lifelinePerimeter;whiteSpace=wrap;html=1;container=1;dropTarget=0;collapsible=0;recursiveResize=0;outlineConnect=0;portConstraint=eastwest;newEdgeStyle={&quot;curved&quot;:0,&quot;rounded&quot;:0};participant=umlActor;" parent="1" vertex="1">
          <mxGeometry x="33" y="80" width="20" height="800" as="geometry" />
        </mxCell>
        <mxCell id="ZDR5Yv0yb0PBUt2VHhqk-8" value="" style="html=1;points=[[0,0,0,0,5],[0,1,0,0,-5],[1,0,0,0,5],[1,1,0,0,-5]];perimeter=orthogonalPerimeter;outlineConnect=0;targetShapes=umlLifeline;portConstraint=eastwest;newEdgeStyle={&quot;curved&quot;:0,&quot;rounded&quot;:0};" parent="ZDR5Yv0yb0PBUt2VHhqk-7" vertex="1">
          <mxGeometry x="5" y="70" width="10" height="700" as="geometry" />
        </mxCell>
        <mxCell id="ZDR5Yv0yb0PBUt2VHhqk-9" value="1. fill name and password click on register" style="html=1;verticalAlign=bottom;endArrow=block;curved=0;rounded=0;entryX=0;entryY=0;entryDx=0;entryDy=5;exitX=1;exitY=0;exitDx=0;exitDy=5;exitPerimeter=0;" parent="1" source="ZDR5Yv0yb0PBUt2VHhqk-8" target="ZDR5Yv0yb0PBUt2VHhqk-2" edge="1">
          <mxGeometry relative="1" as="geometry">
            <mxPoint x="80" y="155" as="sourcePoint" />
          </mxGeometry>
        </mxCell>
        <mxCell id="ZDR5Yv0yb0PBUt2VHhqk-10" value="2. register by email" style="html=1;verticalAlign=bottom;endArrow=block;curved=0;rounded=0;entryX=0;entryY=0;entryDx=0;entryDy=5;" parent="1" source="ZDR5Yv0yb0PBUt2VHhqk-2" target="ZDR5Yv0yb0PBUt2VHhqk-4" edge="1">
          <mxGeometry relative="1" as="geometry">
            <mxPoint x="460" y="165" as="sourcePoint" />
          </mxGeometry>
        </mxCell>
        <mxCell id="ZDR5Yv0yb0PBUt2VHhqk-11" value="Database" style="shape=umlLifeline;perimeter=lifelinePerimeter;whiteSpace=wrap;html=1;container=0;dropTarget=0;collapsible=0;recursiveResize=0;outlineConnect=0;portConstraint=eastwest;newEdgeStyle={&quot;edgeStyle&quot;:&quot;elbowEdgeStyle&quot;,&quot;elbow&quot;:&quot;vertical&quot;,&quot;curved&quot;:0,&quot;rounded&quot;:0};" parent="1" vertex="1">
          <mxGeometry x="1330" y="80" width="100" height="800" as="geometry" />
        </mxCell>
        <mxCell id="ZDR5Yv0yb0PBUt2VHhqk-12" value="" style="html=1;points=[[0,0,0,0,5],[0,1,0,0,-5],[1,0,0,0,5],[1,1,0,0,-5]];perimeter=orthogonalPerimeter;outlineConnect=0;targetShapes=umlLifeline;portConstraint=eastwest;newEdgeStyle={&quot;curved&quot;:0,&quot;rounded&quot;:0};" parent="ZDR5Yv0yb0PBUt2VHhqk-11" vertex="1">
          <mxGeometry x="45" y="487" width="10" height="70" as="geometry" />
        </mxCell>
        <mxCell id="ZDR5Yv0yb0PBUt2VHhqk-13" value="" style="html=1;points=[[0,0,0,0,5],[0,1,0,0,-5],[1,0,0,0,5],[1,1,0,0,-5]];perimeter=orthogonalPerimeter;outlineConnect=0;targetShapes=umlLifeline;portConstraint=eastwest;newEdgeStyle={&quot;curved&quot;:0,&quot;rounded&quot;:0};" parent="ZDR5Yv0yb0PBUt2VHhqk-11" vertex="1">
          <mxGeometry x="45" y="318" width="10" height="70" as="geometry" />
        </mxCell>
        <mxCell id="ZDR5Yv0yb0PBUt2VHhqk-14" value="UserService" style="shape=umlLifeline;perimeter=lifelinePerimeter;whiteSpace=wrap;html=1;container=1;dropTarget=0;collapsible=0;recursiveResize=0;outlineConnect=0;portConstraint=eastwest;newEdgeStyle={&quot;curved&quot;:0,&quot;rounded&quot;:0};" parent="1" vertex="1">
          <mxGeometry x="970" y="80" width="100" height="800" as="geometry" />
        </mxCell>
        <mxCell id="ZDR5Yv0yb0PBUt2VHhqk-15" value="" style="html=1;points=[[0,0,0,0,5],[0,1,0,0,-5],[1,0,0,0,5],[1,1,0,0,-5]];perimeter=orthogonalPerimeter;outlineConnect=0;targetShapes=umlLifeline;portConstraint=eastwest;newEdgeStyle={&quot;curved&quot;:0,&quot;rounded&quot;:0};" parent="ZDR5Yv0yb0PBUt2VHhqk-14" vertex="1">
          <mxGeometry x="405" y="145" width="10" height="70" as="geometry" />
        </mxCell>
        <mxCell id="ZDR5Yv0yb0PBUt2VHhqk-16" value="" style="html=1;points=[[0,0,0,0,5],[0,1,0,0,-5],[1,0,0,0,5],[1,1,0,0,-5]];perimeter=orthogonalPerimeter;outlineConnect=0;targetShapes=umlLifeline;portConstraint=eastwest;newEdgeStyle={&quot;curved&quot;:0,&quot;rounded&quot;:0};" parent="ZDR5Yv0yb0PBUt2VHhqk-14" vertex="1">
          <mxGeometry x="45" y="120" width="10" height="130" as="geometry" />
        </mxCell>
        <mxCell id="ZDR5Yv0yb0PBUt2VHhqk-17" value="3. find user by email" style="html=1;verticalAlign=bottom;endArrow=block;curved=0;rounded=0;exitX=1;exitY=0.488;exitDx=0;exitDy=0;exitPerimeter=0;" parent="ZDR5Yv0yb0PBUt2VHhqk-14" edge="1">
          <mxGeometry width="80" relative="1" as="geometry">
            <mxPoint x="-284" y="134.4960000000001" as="sourcePoint" />
            <mxPoint x="45" y="134.4960000000001" as="targetPoint" />
          </mxGeometry>
        </mxCell>
        <mxCell id="ZDR5Yv0yb0PBUt2VHhqk-18" value="4. find user by email" style="html=1;verticalAlign=bottom;endArrow=block;curved=0;rounded=0;entryX=0;entryY=0.2;entryDx=0;entryDy=0;entryPerimeter=0;" parent="ZDR5Yv0yb0PBUt2VHhqk-14" source="ZDR5Yv0yb0PBUt2VHhqk-16" target="ZDR5Yv0yb0PBUt2VHhqk-15" edge="1">
          <mxGeometry width="80" relative="1" as="geometry">
            <mxPoint x="60" y="160" as="sourcePoint" />
            <mxPoint x="380" y="159" as="targetPoint" />
          </mxGeometry>
        </mxCell>
        <mxCell id="ZDR5Yv0yb0PBUt2VHhqk-19" value="5. saved user" style="html=1;verticalAlign=bottom;endArrow=open;dashed=1;endSize=8;curved=0;rounded=0;" parent="ZDR5Yv0yb0PBUt2VHhqk-14" target="ZDR5Yv0yb0PBUt2VHhqk-16" edge="1">
          <mxGeometry relative="1" as="geometry">
            <mxPoint x="400" y="204" as="sourcePoint" />
            <mxPoint x="50" y="204" as="targetPoint" />
          </mxGeometry>
        </mxCell>
        <mxCell id="ZDR5Yv0yb0PBUt2VHhqk-20" value="6. saved user" style="html=1;verticalAlign=bottom;endArrow=open;dashed=1;endSize=8;curved=0;rounded=0;exitX=-0.1;exitY=0.908;exitDx=0;exitDy=0;exitPerimeter=0;" parent="ZDR5Yv0yb0PBUt2VHhqk-14" source="ZDR5Yv0yb0PBUt2VHhqk-16" edge="1">
          <mxGeometry relative="1" as="geometry">
            <mxPoint x="40" y="240" as="sourcePoint" />
            <mxPoint x="-284" y="238.03999999999996" as="targetPoint" />
          </mxGeometry>
        </mxCell>
        <mxCell id="ZDR5Yv0yb0PBUt2VHhqk-21" value="11. save email authentication provider" style="html=1;verticalAlign=bottom;endArrow=block;curved=0;rounded=0;" parent="1" edge="1">
          <mxGeometry width="80" relative="1" as="geometry">
            <mxPoint x="691" y="577" as="sourcePoint" />
            <mxPoint x="1379.5" y="577" as="targetPoint" />
          </mxGeometry>
        </mxCell>
        <mxCell id="ZDR5Yv0yb0PBUt2VHhqk-22" value="12. saved email authentication provider" style="html=1;verticalAlign=bottom;endArrow=open;dashed=1;endSize=8;curved=0;rounded=0;" parent="1" target="ZDR5Yv0yb0PBUt2VHhqk-5" edge="1">
          <mxGeometry relative="1" as="geometry">
            <mxPoint x="1370" y="627" as="sourcePoint" />
            <mxPoint x="760" y="627" as="targetPoint" />
          </mxGeometry>
        </mxCell>
        <mxCell id="ZDR5Yv0yb0PBUt2VHhqk-23" value="MailService" style="shape=umlLifeline;perimeter=lifelinePerimeter;whiteSpace=wrap;html=1;container=1;dropTarget=0;collapsible=0;recursiveResize=0;outlineConnect=0;portConstraint=eastwest;newEdgeStyle={&quot;curved&quot;:0,&quot;rounded&quot;:0};" parent="1" vertex="1">
          <mxGeometry x="1587" y="80" width="100" height="800" as="geometry" />
        </mxCell>
        <mxCell id="ZDR5Yv0yb0PBUt2VHhqk-24" value="" style="html=1;points=[[0,0,0,0,5],[0,1,0,0,-5],[1,0,0,0,5],[1,1,0,0,-5]];perimeter=orthogonalPerimeter;outlineConnect=0;targetShapes=umlLifeline;portConstraint=eastwest;newEdgeStyle={&quot;curved&quot;:0,&quot;rounded&quot;:0};" parent="ZDR5Yv0yb0PBUt2VHhqk-23" vertex="1">
          <mxGeometry x="45" y="624" width="10" height="53" as="geometry" />
        </mxCell>
        <mxCell id="ZDR5Yv0yb0PBUt2VHhqk-25" value="13. send activation code email" style="html=1;verticalAlign=bottom;endArrow=block;curved=0;rounded=0;" parent="1" edge="1">
          <mxGeometry width="80" relative="1" as="geometry">
            <mxPoint x="681" y="717" as="sourcePoint" />
            <mxPoint x="1636.5" y="717" as="targetPoint" />
          </mxGeometry>
        </mxCell>
        <mxCell id="ZDR5Yv0yb0PBUt2VHhqk-26" value="14. registration data" style="html=1;verticalAlign=bottom;endArrow=open;dashed=1;endSize=8;curved=0;rounded=0;" parent="1" edge="1">
          <mxGeometry relative="1" as="geometry">
            <mxPoint x="681" y="779" as="sourcePoint" />
            <mxPoint x="349.5" y="779" as="targetPoint" />
          </mxGeometry>
        </mxCell>
        <mxCell id="ZDR5Yv0yb0PBUt2VHhqk-27" value="15. show success message and send to activate email" style="html=1;verticalAlign=bottom;endArrow=open;dashed=1;endSize=8;curved=0;rounded=0;" parent="1" edge="1">
          <mxGeometry relative="1" as="geometry">
            <mxPoint x="350" y="829" as="sourcePoint" />
            <mxPoint x="42.5" y="829" as="targetPoint" />
          </mxGeometry>
        </mxCell>
        <mxCell id="ZDR5Yv0yb0PBUt2VHhqk-28" value="Registration by email user exists authentication provider does not exists" style="text;html=1;align=center;verticalAlign=middle;resizable=0;points=[];autosize=1;strokeColor=none;fillColor=none;fontSize=16;fontStyle=1" parent="1" vertex="1">
          <mxGeometry x="20" width="530" height="30" as="geometry" />
        </mxCell>
        <mxCell id="ZDR5Yv0yb0PBUt2VHhqk-29" value="8. find email authentication provider" style="html=1;verticalAlign=bottom;endArrow=block;curved=0;rounded=0;exitX=0.9;exitY=0.302;exitDx=0;exitDy=0;exitPerimeter=0;" parent="1" edge="1">
          <mxGeometry width="80" relative="1" as="geometry">
            <mxPoint x="685" y="407.7439999999999" as="sourcePoint" />
            <mxPoint x="1375" y="411" as="targetPoint" />
          </mxGeometry>
        </mxCell>
        <mxCell id="ZDR5Yv0yb0PBUt2VHhqk-30" value="9. email authentication provider not found" style="html=1;verticalAlign=bottom;endArrow=open;dashed=1;endSize=8;curved=0;rounded=0;entryX=0.9;entryY=0.367;entryDx=0;entryDy=0;entryPerimeter=0;" parent="1" edge="1">
          <mxGeometry relative="1" as="geometry">
            <mxPoint x="1375" y="457.924" as="sourcePoint" />
            <mxPoint x="685" y="457.924" as="targetPoint" />
          </mxGeometry>
        </mxCell>
      </root>
    </mxGraphModel>
  </diagram>
  <diagram id="WObZUIPfEkh9AjVrtjbx" name="Basic-Info-Case-3">
    <mxGraphModel dx="1463" dy="872" grid="1" gridSize="10" guides="1" tooltips="1" connect="1" arrows="1" fold="1" page="1" pageScale="1" pageWidth="850" pageHeight="1100" math="0" shadow="0">
      <root>
        <mxCell id="0" />
        <mxCell id="1" parent="0" />
        <mxCell id="SF7MEa0bX75UrD7-XUN6-1" value="AuthController" style="shape=umlLifeline;perimeter=lifelinePerimeter;whiteSpace=wrap;html=1;container=0;dropTarget=0;collapsible=0;recursiveResize=0;outlineConnect=0;portConstraint=eastwest;newEdgeStyle={&quot;edgeStyle&quot;:&quot;elbowEdgeStyle&quot;,&quot;elbow&quot;:&quot;vertical&quot;,&quot;curved&quot;:0,&quot;rounded&quot;:0};" parent="1" vertex="1">
          <mxGeometry x="300" y="80" width="100" height="520" as="geometry" />
        </mxCell>
        <mxCell id="SF7MEa0bX75UrD7-XUN6-2" value="" style="html=1;points=[[0,0,0,0,5],[0,1,0,0,-5],[1,0,0,0,5],[1,1,0,0,-5]];perimeter=orthogonalPerimeter;outlineConnect=0;targetShapes=umlLifeline;portConstraint=eastwest;newEdgeStyle={&quot;curved&quot;:0,&quot;rounded&quot;:0};" parent="SF7MEa0bX75UrD7-XUN6-1" vertex="1">
          <mxGeometry x="45" y="70" width="10" height="410" as="geometry" />
        </mxCell>
        <mxCell id="SF7MEa0bX75UrD7-XUN6-3" value="AuthService" style="shape=umlLifeline;perimeter=lifelinePerimeter;whiteSpace=wrap;html=1;container=0;dropTarget=0;collapsible=0;recursiveResize=0;outlineConnect=0;portConstraint=eastwest;newEdgeStyle={&quot;edgeStyle&quot;:&quot;elbowEdgeStyle&quot;,&quot;elbow&quot;:&quot;vertical&quot;,&quot;curved&quot;:0,&quot;rounded&quot;:0};" parent="1" vertex="1">
          <mxGeometry x="631" y="81" width="100" height="519" as="geometry" />
        </mxCell>
        <mxCell id="SF7MEa0bX75UrD7-XUN6-4" value="" style="html=1;points=[[0,0,0,0,5],[0,1,0,0,-5],[1,0,0,0,5],[1,1,0,0,-5]];perimeter=orthogonalPerimeter;outlineConnect=0;targetShapes=umlLifeline;portConstraint=eastwest;newEdgeStyle={&quot;curved&quot;:0,&quot;rounded&quot;:0};" parent="SF7MEa0bX75UrD7-XUN6-3" vertex="1">
          <mxGeometry x="45" y="98" width="10" height="332" as="geometry" />
        </mxCell>
        <mxCell id="SF7MEa0bX75UrD7-XUN6-5" value="" style="shape=umlLifeline;perimeter=lifelinePerimeter;whiteSpace=wrap;html=1;container=1;dropTarget=0;collapsible=0;recursiveResize=0;outlineConnect=0;portConstraint=eastwest;newEdgeStyle={&quot;curved&quot;:0,&quot;rounded&quot;:0};participant=umlActor;" parent="1" vertex="1">
          <mxGeometry x="33" y="80" width="20" height="520" as="geometry" />
        </mxCell>
        <mxCell id="SF7MEa0bX75UrD7-XUN6-6" value="" style="html=1;points=[[0,0,0,0,5],[0,1,0,0,-5],[1,0,0,0,5],[1,1,0,0,-5]];perimeter=orthogonalPerimeter;outlineConnect=0;targetShapes=umlLifeline;portConstraint=eastwest;newEdgeStyle={&quot;curved&quot;:0,&quot;rounded&quot;:0};" parent="SF7MEa0bX75UrD7-XUN6-5" vertex="1">
          <mxGeometry x="5" y="70" width="10" height="410" as="geometry" />
        </mxCell>
        <mxCell id="SF7MEa0bX75UrD7-XUN6-7" value="1. fill name and password click on register" style="html=1;verticalAlign=bottom;endArrow=block;curved=0;rounded=0;entryX=0;entryY=0;entryDx=0;entryDy=5;exitX=1;exitY=0;exitDx=0;exitDy=5;exitPerimeter=0;" parent="1" source="SF7MEa0bX75UrD7-XUN6-6" target="SF7MEa0bX75UrD7-XUN6-2" edge="1">
          <mxGeometry relative="1" as="geometry">
            <mxPoint x="80" y="155" as="sourcePoint" />
          </mxGeometry>
        </mxCell>
        <mxCell id="SF7MEa0bX75UrD7-XUN6-8" value="2. register by email" style="html=1;verticalAlign=bottom;endArrow=block;curved=0;rounded=0;entryX=0;entryY=0;entryDx=0;entryDy=5;" parent="1" source="SF7MEa0bX75UrD7-XUN6-2" target="SF7MEa0bX75UrD7-XUN6-4" edge="1">
          <mxGeometry relative="1" as="geometry">
            <mxPoint x="460" y="165" as="sourcePoint" />
          </mxGeometry>
        </mxCell>
        <mxCell id="SF7MEa0bX75UrD7-XUN6-9" value="Database" style="shape=umlLifeline;perimeter=lifelinePerimeter;whiteSpace=wrap;html=1;container=0;dropTarget=0;collapsible=0;recursiveResize=0;outlineConnect=0;portConstraint=eastwest;newEdgeStyle={&quot;edgeStyle&quot;:&quot;elbowEdgeStyle&quot;,&quot;elbow&quot;:&quot;vertical&quot;,&quot;curved&quot;:0,&quot;rounded&quot;:0};" parent="1" vertex="1">
          <mxGeometry x="1330" y="80" width="100" height="520" as="geometry" />
        </mxCell>
        <mxCell id="SF7MEa0bX75UrD7-XUN6-11" value="UserService" style="shape=umlLifeline;perimeter=lifelinePerimeter;whiteSpace=wrap;html=1;container=1;dropTarget=0;collapsible=0;recursiveResize=0;outlineConnect=0;portConstraint=eastwest;newEdgeStyle={&quot;curved&quot;:0,&quot;rounded&quot;:0};" parent="1" vertex="1">
          <mxGeometry x="970" y="80" width="100" height="520" as="geometry" />
        </mxCell>
        <mxCell id="SF7MEa0bX75UrD7-XUN6-12" value="" style="html=1;points=[[0,0,0,0,5],[0,1,0,0,-5],[1,0,0,0,5],[1,1,0,0,-5]];perimeter=orthogonalPerimeter;outlineConnect=0;targetShapes=umlLifeline;portConstraint=eastwest;newEdgeStyle={&quot;curved&quot;:0,&quot;rounded&quot;:0};" parent="SF7MEa0bX75UrD7-XUN6-11" vertex="1">
          <mxGeometry x="405" y="145" width="10" height="70" as="geometry" />
        </mxCell>
        <mxCell id="SF7MEa0bX75UrD7-XUN6-13" value="" style="html=1;points=[[0,0,0,0,5],[0,1,0,0,-5],[1,0,0,0,5],[1,1,0,0,-5]];perimeter=orthogonalPerimeter;outlineConnect=0;targetShapes=umlLifeline;portConstraint=eastwest;newEdgeStyle={&quot;curved&quot;:0,&quot;rounded&quot;:0};" parent="SF7MEa0bX75UrD7-XUN6-11" vertex="1">
          <mxGeometry x="45" y="120" width="10" height="130" as="geometry" />
        </mxCell>
        <mxCell id="SF7MEa0bX75UrD7-XUN6-14" value="3. find user by email" style="html=1;verticalAlign=bottom;endArrow=block;curved=0;rounded=0;exitX=1;exitY=0.488;exitDx=0;exitDy=0;exitPerimeter=0;" parent="SF7MEa0bX75UrD7-XUN6-11" edge="1">
          <mxGeometry width="80" relative="1" as="geometry">
            <mxPoint x="-284" y="134.4960000000001" as="sourcePoint" />
            <mxPoint x="45" y="134.4960000000001" as="targetPoint" />
          </mxGeometry>
        </mxCell>
        <mxCell id="SF7MEa0bX75UrD7-XUN6-15" value="4. find user by email" style="html=1;verticalAlign=bottom;endArrow=block;curved=0;rounded=0;entryX=0;entryY=0.2;entryDx=0;entryDy=0;entryPerimeter=0;" parent="SF7MEa0bX75UrD7-XUN6-11" source="SF7MEa0bX75UrD7-XUN6-13" target="SF7MEa0bX75UrD7-XUN6-12" edge="1">
          <mxGeometry width="80" relative="1" as="geometry">
            <mxPoint x="60" y="160" as="sourcePoint" />
            <mxPoint x="380" y="159" as="targetPoint" />
          </mxGeometry>
        </mxCell>
        <mxCell id="SF7MEa0bX75UrD7-XUN6-16" value="5. saved user" style="html=1;verticalAlign=bottom;endArrow=open;dashed=1;endSize=8;curved=0;rounded=0;" parent="SF7MEa0bX75UrD7-XUN6-11" target="SF7MEa0bX75UrD7-XUN6-13" edge="1">
          <mxGeometry relative="1" as="geometry">
            <mxPoint x="400" y="204" as="sourcePoint" />
            <mxPoint x="50" y="204" as="targetPoint" />
          </mxGeometry>
        </mxCell>
        <mxCell id="SF7MEa0bX75UrD7-XUN6-17" value="6. saved user" style="html=1;verticalAlign=bottom;endArrow=open;dashed=1;endSize=8;curved=0;rounded=0;exitX=-0.1;exitY=0.908;exitDx=0;exitDy=0;exitPerimeter=0;" parent="SF7MEa0bX75UrD7-XUN6-11" source="SF7MEa0bX75UrD7-XUN6-13" edge="1">
          <mxGeometry relative="1" as="geometry">
            <mxPoint x="40" y="240" as="sourcePoint" />
            <mxPoint x="-284" y="238.03999999999996" as="targetPoint" />
          </mxGeometry>
        </mxCell>
        <mxCell id="SF7MEa0bX75UrD7-XUN6-18" value="Registration by email user exists authentication provider is already active" style="text;html=1;align=center;verticalAlign=middle;resizable=0;points=[];autosize=1;strokeColor=none;fillColor=none;fontSize=16;fontStyle=1" parent="1" vertex="1">
          <mxGeometry x="20" width="540" height="30" as="geometry" />
        </mxCell>
        <mxCell id="SF7MEa0bX75UrD7-XUN6-21" value="10. throw email authentication provider already activated" style="html=1;verticalAlign=bottom;endArrow=open;dashed=1;endSize=8;curved=0;rounded=0;" parent="1" edge="1">
          <mxGeometry relative="1" as="geometry">
            <mxPoint x="680.5" y="493.5" as="sourcePoint" />
            <mxPoint x="349.5" y="493.5" as="targetPoint" />
          </mxGeometry>
        </mxCell>
        <mxCell id="SF7MEa0bX75UrD7-XUN6-22" value="11. show user already registered error" style="html=1;verticalAlign=bottom;endArrow=open;dashed=1;endSize=8;curved=0;rounded=0;entryX=1.05;entryY=0.545;entryDx=0;entryDy=0;entryPerimeter=0;" parent="1" edge="1">
          <mxGeometry relative="1" as="geometry">
            <mxPoint x="349.5" y="542.5999999999999" as="sourcePoint" />
            <mxPoint x="48.5" y="542.5999999999999" as="targetPoint" />
          </mxGeometry>
        </mxCell>
        <mxCell id="qpP45KlBAJFQ2u4eH4kc-1" value="" style="html=1;points=[[0,0,0,0,5],[0,1,0,0,-5],[1,0,0,0,5],[1,1,0,0,-5]];perimeter=orthogonalPerimeter;outlineConnect=0;targetShapes=umlLifeline;portConstraint=eastwest;newEdgeStyle={&quot;curved&quot;:0,&quot;rounded&quot;:0};" parent="1" vertex="1">
          <mxGeometry x="681" y="380" width="10" height="40" as="geometry" />
        </mxCell>
        <mxCell id="qpP45KlBAJFQ2u4eH4kc-2" value="7. find authentication provider" style="html=1;align=left;spacingLeft=2;endArrow=block;rounded=0;edgeStyle=orthogonalEdgeStyle;curved=0;rounded=0;" parent="1" target="qpP45KlBAJFQ2u4eH4kc-1" edge="1">
          <mxGeometry relative="1" as="geometry">
            <mxPoint x="686" y="360" as="sourcePoint" />
            <Array as="points">
              <mxPoint x="716" y="390" />
            </Array>
          </mxGeometry>
        </mxCell>
        <mxCell id="qpP45KlBAJFQ2u4eH4kc-3" value="" style="html=1;points=[[0,0,0,0,5],[0,1,0,0,-5],[1,0,0,0,5],[1,1,0,0,-5]];perimeter=orthogonalPerimeter;outlineConnect=0;targetShapes=umlLifeline;portConstraint=eastwest;newEdgeStyle={&quot;curved&quot;:0,&quot;rounded&quot;:0};" parent="1" vertex="1">
          <mxGeometry x="1375" y="398" width="10" height="70" as="geometry" />
        </mxCell>
        <mxCell id="qpP45KlBAJFQ2u4eH4kc-4" value="8. find email authentication provider" style="html=1;verticalAlign=bottom;endArrow=block;curved=0;rounded=0;exitX=0.9;exitY=0.302;exitDx=0;exitDy=0;exitPerimeter=0;" parent="1" edge="1">
          <mxGeometry width="80" relative="1" as="geometry">
            <mxPoint x="685" y="407.7439999999999" as="sourcePoint" />
            <mxPoint x="1375" y="411" as="targetPoint" />
          </mxGeometry>
        </mxCell>
        <mxCell id="qpP45KlBAJFQ2u4eH4kc-5" value="9. saved email authentication provider" style="html=1;verticalAlign=bottom;endArrow=open;dashed=1;endSize=8;curved=0;rounded=0;entryX=0.9;entryY=0.367;entryDx=0;entryDy=0;entryPerimeter=0;" parent="1" edge="1">
          <mxGeometry relative="1" as="geometry">
            <mxPoint x="1375" y="457.924" as="sourcePoint" />
            <mxPoint x="685" y="457.924" as="targetPoint" />
          </mxGeometry>
        </mxCell>
      </root>
    </mxGraphModel>
  </diagram>
  <diagram id="hWQ8K01w7LleC1jFlHAh" name="Basic-Info-Case-4">
    <mxGraphModel dx="2801" dy="1163" grid="1" gridSize="10" guides="1" tooltips="1" connect="1" arrows="1" fold="1" page="1" pageScale="1" pageWidth="850" pageHeight="1100" math="0" shadow="0">
      <root>
        <mxCell id="0" />
        <mxCell id="1" parent="0" />
        <mxCell id="4NDNY2ZOt2ilyVrcRyLL-1" value="AuthController" style="shape=umlLifeline;perimeter=lifelinePerimeter;whiteSpace=wrap;html=1;container=0;dropTarget=0;collapsible=0;recursiveResize=0;outlineConnect=0;portConstraint=eastwest;newEdgeStyle={&quot;edgeStyle&quot;:&quot;elbowEdgeStyle&quot;,&quot;elbow&quot;:&quot;vertical&quot;,&quot;curved&quot;:0,&quot;rounded&quot;:0};" parent="1" vertex="1">
          <mxGeometry x="300" y="80" width="100" height="1000" as="geometry" />
        </mxCell>
        <mxCell id="4NDNY2ZOt2ilyVrcRyLL-2" value="" style="html=1;points=[[0,0,0,0,5],[0,1,0,0,-5],[1,0,0,0,5],[1,1,0,0,-5]];perimeter=orthogonalPerimeter;outlineConnect=0;targetShapes=umlLifeline;portConstraint=eastwest;newEdgeStyle={&quot;curved&quot;:0,&quot;rounded&quot;:0};" parent="4NDNY2ZOt2ilyVrcRyLL-1" vertex="1">
          <mxGeometry x="45" y="70" width="10" height="900" as="geometry" />
        </mxCell>
        <mxCell id="4NDNY2ZOt2ilyVrcRyLL-3" value="AuthService" style="shape=umlLifeline;perimeter=lifelinePerimeter;whiteSpace=wrap;html=1;container=0;dropTarget=0;collapsible=0;recursiveResize=0;outlineConnect=0;portConstraint=eastwest;newEdgeStyle={&quot;edgeStyle&quot;:&quot;elbowEdgeStyle&quot;,&quot;elbow&quot;:&quot;vertical&quot;,&quot;curved&quot;:0,&quot;rounded&quot;:0};" parent="1" vertex="1">
          <mxGeometry x="631" y="81" width="100" height="999" as="geometry" />
        </mxCell>
        <mxCell id="4NDNY2ZOt2ilyVrcRyLL-4" value="" style="html=1;points=[[0,0,0,0,5],[0,1,0,0,-5],[1,0,0,0,5],[1,1,0,0,-5]];perimeter=orthogonalPerimeter;outlineConnect=0;targetShapes=umlLifeline;portConstraint=eastwest;newEdgeStyle={&quot;curved&quot;:0,&quot;rounded&quot;:0};" parent="4NDNY2ZOt2ilyVrcRyLL-3" vertex="1">
          <mxGeometry x="45" y="98" width="10" height="822" as="geometry" />
        </mxCell>
        <mxCell id="4NDNY2ZOt2ilyVrcRyLL-5" value="" style="shape=umlLifeline;perimeter=lifelinePerimeter;whiteSpace=wrap;html=1;container=1;dropTarget=0;collapsible=0;recursiveResize=0;outlineConnect=0;portConstraint=eastwest;newEdgeStyle={&quot;curved&quot;:0,&quot;rounded&quot;:0};participant=umlActor;" parent="1" vertex="1">
          <mxGeometry x="33" y="80" width="20" height="1000" as="geometry" />
        </mxCell>
        <mxCell id="4NDNY2ZOt2ilyVrcRyLL-6" value="" style="html=1;points=[[0,0,0,0,5],[0,1,0,0,-5],[1,0,0,0,5],[1,1,0,0,-5]];perimeter=orthogonalPerimeter;outlineConnect=0;targetShapes=umlLifeline;portConstraint=eastwest;newEdgeStyle={&quot;curved&quot;:0,&quot;rounded&quot;:0};" parent="4NDNY2ZOt2ilyVrcRyLL-5" vertex="1">
          <mxGeometry x="5" y="70" width="10" height="900" as="geometry" />
        </mxCell>
        <mxCell id="4NDNY2ZOt2ilyVrcRyLL-7" value="1. fill name and password click on register" style="html=1;verticalAlign=bottom;endArrow=block;curved=0;rounded=0;entryX=0;entryY=0;entryDx=0;entryDy=5;exitX=1;exitY=0;exitDx=0;exitDy=5;exitPerimeter=0;" parent="1" source="4NDNY2ZOt2ilyVrcRyLL-6" target="4NDNY2ZOt2ilyVrcRyLL-2" edge="1">
          <mxGeometry relative="1" as="geometry">
            <mxPoint x="80" y="155" as="sourcePoint" />
          </mxGeometry>
        </mxCell>
        <mxCell id="4NDNY2ZOt2ilyVrcRyLL-8" value="2. register by email" style="html=1;verticalAlign=bottom;endArrow=block;curved=0;rounded=0;entryX=0;entryY=0;entryDx=0;entryDy=5;" parent="1" source="4NDNY2ZOt2ilyVrcRyLL-2" target="4NDNY2ZOt2ilyVrcRyLL-4" edge="1">
          <mxGeometry relative="1" as="geometry">
            <mxPoint x="460" y="165" as="sourcePoint" />
          </mxGeometry>
        </mxCell>
        <mxCell id="4NDNY2ZOt2ilyVrcRyLL-9" value="Database" style="shape=umlLifeline;perimeter=lifelinePerimeter;whiteSpace=wrap;html=1;container=0;dropTarget=0;collapsible=0;recursiveResize=0;outlineConnect=0;portConstraint=eastwest;newEdgeStyle={&quot;edgeStyle&quot;:&quot;elbowEdgeStyle&quot;,&quot;elbow&quot;:&quot;vertical&quot;,&quot;curved&quot;:0,&quot;rounded&quot;:0};" parent="1" vertex="1">
          <mxGeometry x="1330" y="80" width="100" height="1000" as="geometry" />
        </mxCell>
        <mxCell id="4NDNY2ZOt2ilyVrcRyLL-11" value="UserService" style="shape=umlLifeline;perimeter=lifelinePerimeter;whiteSpace=wrap;html=1;container=1;dropTarget=0;collapsible=0;recursiveResize=0;outlineConnect=0;portConstraint=eastwest;newEdgeStyle={&quot;curved&quot;:0,&quot;rounded&quot;:0};" parent="1" vertex="1">
          <mxGeometry x="970" y="80" width="100" height="1000" as="geometry" />
        </mxCell>
        <mxCell id="4NDNY2ZOt2ilyVrcRyLL-12" value="" style="html=1;points=[[0,0,0,0,5],[0,1,0,0,-5],[1,0,0,0,5],[1,1,0,0,-5]];perimeter=orthogonalPerimeter;outlineConnect=0;targetShapes=umlLifeline;portConstraint=eastwest;newEdgeStyle={&quot;curved&quot;:0,&quot;rounded&quot;:0};" parent="4NDNY2ZOt2ilyVrcRyLL-11" vertex="1">
          <mxGeometry x="405" y="145" width="10" height="70" as="geometry" />
        </mxCell>
        <mxCell id="4NDNY2ZOt2ilyVrcRyLL-13" value="" style="html=1;points=[[0,0,0,0,5],[0,1,0,0,-5],[1,0,0,0,5],[1,1,0,0,-5]];perimeter=orthogonalPerimeter;outlineConnect=0;targetShapes=umlLifeline;portConstraint=eastwest;newEdgeStyle={&quot;curved&quot;:0,&quot;rounded&quot;:0};" parent="4NDNY2ZOt2ilyVrcRyLL-11" vertex="1">
          <mxGeometry x="45" y="120" width="10" height="130" as="geometry" />
        </mxCell>
        <mxCell id="4NDNY2ZOt2ilyVrcRyLL-14" value="3. find user by email" style="html=1;verticalAlign=bottom;endArrow=block;curved=0;rounded=0;exitX=1;exitY=0.488;exitDx=0;exitDy=0;exitPerimeter=0;" parent="4NDNY2ZOt2ilyVrcRyLL-11" edge="1">
          <mxGeometry width="80" relative="1" as="geometry">
            <mxPoint x="-284" y="134.4960000000001" as="sourcePoint" />
            <mxPoint x="45" y="134.4960000000001" as="targetPoint" />
          </mxGeometry>
        </mxCell>
        <mxCell id="4NDNY2ZOt2ilyVrcRyLL-15" value="4. find user by email" style="html=1;verticalAlign=bottom;endArrow=block;curved=0;rounded=0;entryX=0;entryY=0.2;entryDx=0;entryDy=0;entryPerimeter=0;" parent="4NDNY2ZOt2ilyVrcRyLL-11" source="4NDNY2ZOt2ilyVrcRyLL-13" target="4NDNY2ZOt2ilyVrcRyLL-12" edge="1">
          <mxGeometry width="80" relative="1" as="geometry">
            <mxPoint x="60" y="160" as="sourcePoint" />
            <mxPoint x="380" y="159" as="targetPoint" />
          </mxGeometry>
        </mxCell>
        <mxCell id="4NDNY2ZOt2ilyVrcRyLL-16" value="5. saved user" style="html=1;verticalAlign=bottom;endArrow=open;dashed=1;endSize=8;curved=0;rounded=0;" parent="4NDNY2ZOt2ilyVrcRyLL-11" target="4NDNY2ZOt2ilyVrcRyLL-13" edge="1">
          <mxGeometry relative="1" as="geometry">
            <mxPoint x="400" y="204" as="sourcePoint" />
            <mxPoint x="50" y="204" as="targetPoint" />
          </mxGeometry>
        </mxCell>
        <mxCell id="4NDNY2ZOt2ilyVrcRyLL-17" value="6. saved user" style="html=1;verticalAlign=bottom;endArrow=open;dashed=1;endSize=8;curved=0;rounded=0;exitX=-0.1;exitY=0.908;exitDx=0;exitDy=0;exitPerimeter=0;" parent="4NDNY2ZOt2ilyVrcRyLL-11" source="4NDNY2ZOt2ilyVrcRyLL-13" edge="1">
          <mxGeometry relative="1" as="geometry">
            <mxPoint x="40" y="240" as="sourcePoint" />
            <mxPoint x="-284" y="238.03999999999996" as="targetPoint" />
          </mxGeometry>
        </mxCell>
        <mxCell id="4NDNY2ZOt2ilyVrcRyLL-18" value="MailService" style="shape=umlLifeline;perimeter=lifelinePerimeter;whiteSpace=wrap;html=1;container=1;dropTarget=0;collapsible=0;recursiveResize=0;outlineConnect=0;portConstraint=eastwest;newEdgeStyle={&quot;curved&quot;:0,&quot;rounded&quot;:0};" parent="1" vertex="1">
          <mxGeometry x="1587" y="80" width="100" height="1000" as="geometry" />
        </mxCell>
        <mxCell id="4NDNY2ZOt2ilyVrcRyLL-19" value="Registration by email user exists authentication provider is not active" style="text;html=1;align=center;verticalAlign=middle;resizable=0;points=[];autosize=1;strokeColor=none;fillColor=none;fontSize=16;fontStyle=1" parent="1" vertex="1">
          <mxGeometry x="20" width="510" height="30" as="geometry" />
        </mxCell>
        <mxCell id="4NDNY2ZOt2ilyVrcRyLL-22" value="" style="html=1;points=[[0,0,0,0,5],[0,1,0,0,-5],[1,0,0,0,5],[1,1,0,0,-5]];perimeter=orthogonalPerimeter;outlineConnect=0;targetShapes=umlLifeline;portConstraint=eastwest;newEdgeStyle={&quot;curved&quot;:0,&quot;rounded&quot;:0};" parent="1" vertex="1">
          <mxGeometry x="1631" y="937" width="10" height="53" as="geometry" />
        </mxCell>
        <mxCell id="4NDNY2ZOt2ilyVrcRyLL-23" value="18. send activation code email" style="html=1;verticalAlign=bottom;endArrow=block;curved=0;rounded=0;" parent="1" edge="1">
          <mxGeometry width="80" relative="1" as="geometry">
            <mxPoint x="680" y="950" as="sourcePoint" />
            <mxPoint x="1635.5" y="950" as="targetPoint" />
          </mxGeometry>
        </mxCell>
        <mxCell id="4NDNY2ZOt2ilyVrcRyLL-24" value="17. registration data" style="html=1;verticalAlign=bottom;endArrow=open;dashed=1;endSize=8;curved=0;rounded=0;" parent="1" edge="1">
          <mxGeometry relative="1" as="geometry">
            <mxPoint x="681" y="986" as="sourcePoint" />
            <mxPoint x="349.5" y="986" as="targetPoint" />
          </mxGeometry>
        </mxCell>
        <mxCell id="4NDNY2ZOt2ilyVrcRyLL-25" value="18. show success message and send to activate email" style="html=1;verticalAlign=bottom;endArrow=open;dashed=1;endSize=8;curved=0;rounded=0;" parent="1" edge="1">
          <mxGeometry relative="1" as="geometry">
            <mxPoint x="350" y="1036" as="sourcePoint" />
            <mxPoint x="42.5" y="1036" as="targetPoint" />
          </mxGeometry>
        </mxCell>
        <mxCell id="4NDNY2ZOt2ilyVrcRyLL-26" value="alt" style="shape=umlFrame;whiteSpace=wrap;html=1;pointerEvents=0;" parent="1" vertex="1">
          <mxGeometry x="-60" y="503" width="1790" height="557" as="geometry" />
        </mxCell>
        <mxCell id="4NDNY2ZOt2ilyVrcRyLL-27" value="[ activation code max limit reached ]" style="text;html=1;align=center;verticalAlign=middle;resizable=0;points=[];autosize=1;strokeColor=none;fillColor=none;" parent="1" vertex="1">
          <mxGeometry x="10" y="503" width="210" height="30" as="geometry" />
        </mxCell>
        <mxCell id="4NDNY2ZOt2ilyVrcRyLL-28" value="[ activation code can be resent ]" style="text;html=1;align=center;verticalAlign=middle;resizable=0;points=[];autosize=1;strokeColor=none;fillColor=none;" parent="1" vertex="1">
          <mxGeometry x="10" y="624" width="190" height="30" as="geometry" />
        </mxCell>
        <mxCell id="4NDNY2ZOt2ilyVrcRyLL-29" value="" style="html=1;verticalAlign=bottom;endArrow=none;dashed=1;endSize=8;curved=0;rounded=0;exitX=0.999;exitY=0.29;exitDx=0;exitDy=0;exitPerimeter=0;startFill=0;" parent="1" edge="1">
          <mxGeometry relative="1" as="geometry">
            <mxPoint x="1728.21" y="625" as="sourcePoint" />
            <mxPoint x="-60" y="624.5" as="targetPoint" />
          </mxGeometry>
        </mxCell>
        <mxCell id="4NDNY2ZOt2ilyVrcRyLL-30" value="10. throw registration max limit reached error&amp;nbsp;" style="html=1;verticalAlign=bottom;endArrow=open;dashed=1;endSize=8;curved=0;rounded=0;entryX=0.9;entryY=0.5;entryDx=0;entryDy=0;entryPerimeter=0;" parent="1" edge="1">
          <mxGeometry relative="1" as="geometry">
            <mxPoint x="676" y="542" as="sourcePoint" />
            <mxPoint x="354" y="542" as="targetPoint" />
          </mxGeometry>
        </mxCell>
        <mxCell id="4NDNY2ZOt2ilyVrcRyLL-31" value="11. show registration max limit reached error" style="html=1;verticalAlign=bottom;endArrow=open;dashed=1;endSize=8;curved=0;rounded=0;entryX=0.9;entryY=0.545;entryDx=0;entryDy=0;entryPerimeter=0;" parent="1" edge="1">
          <mxGeometry relative="1" as="geometry">
            <mxPoint x="345" y="582.7" as="sourcePoint" />
            <mxPoint x="47" y="582.7" as="targetPoint" />
          </mxGeometry>
        </mxCell>
        <mxCell id="4NDNY2ZOt2ilyVrcRyLL-32" value="" style="html=1;points=[[0,0,0,0,5],[0,1,0,0,-5],[1,0,0,0,5],[1,1,0,0,-5]];perimeter=orthogonalPerimeter;outlineConnect=0;targetShapes=umlLifeline;portConstraint=eastwest;newEdgeStyle={&quot;curved&quot;:0,&quot;rounded&quot;:0};" parent="1" vertex="1">
          <mxGeometry x="681" y="672" width="10" height="40" as="geometry" />
        </mxCell>
        <mxCell id="4NDNY2ZOt2ilyVrcRyLL-33" value="12. calculate resend activation code timeout" style="html=1;align=left;spacingLeft=2;endArrow=block;rounded=0;edgeStyle=orthogonalEdgeStyle;curved=0;rounded=0;" parent="1" target="4NDNY2ZOt2ilyVrcRyLL-32" edge="1">
          <mxGeometry relative="1" as="geometry">
            <mxPoint x="686" y="652" as="sourcePoint" />
            <Array as="points">
              <mxPoint x="716" y="682" />
            </Array>
          </mxGeometry>
        </mxCell>
        <mxCell id="4NDNY2ZOt2ilyVrcRyLL-34" value="" style="html=1;points=[[0,0,0,0,5],[0,1,0,0,-5],[1,0,0,0,5],[1,1,0,0,-5]];perimeter=orthogonalPerimeter;outlineConnect=0;targetShapes=umlLifeline;portConstraint=eastwest;newEdgeStyle={&quot;curved&quot;:0,&quot;rounded&quot;:0};" parent="1" vertex="1">
          <mxGeometry x="681" y="763" width="10" height="157" as="geometry" />
        </mxCell>
        <mxCell id="4NDNY2ZOt2ilyVrcRyLL-35" value="13. update user and email authentication provider" style="html=1;align=left;spacingLeft=2;endArrow=block;rounded=0;edgeStyle=orthogonalEdgeStyle;curved=0;rounded=0;" parent="1" target="4NDNY2ZOt2ilyVrcRyLL-34" edge="1">
          <mxGeometry relative="1" as="geometry">
            <mxPoint x="686" y="743" as="sourcePoint" />
            <Array as="points">
              <mxPoint x="716" y="773" />
            </Array>
          </mxGeometry>
        </mxCell>
        <mxCell id="4NDNY2ZOt2ilyVrcRyLL-36" value="16. update email authentication provider" style="html=1;verticalAlign=bottom;endArrow=block;curved=0;rounded=0;entryX=0;entryY=0.226;entryDx=0;entryDy=0;entryPerimeter=0;" parent="1" target="4NDNY2ZOt2ilyVrcRyLL-37" edge="1">
          <mxGeometry width="80" relative="1" as="geometry">
            <mxPoint x="691" y="866.9780000000001" as="sourcePoint" />
            <mxPoint x="910" y="864" as="targetPoint" />
          </mxGeometry>
        </mxCell>
        <mxCell id="4NDNY2ZOt2ilyVrcRyLL-37" value="" style="html=1;points=[[0,0,0,0,5],[0,1,0,0,-5],[1,0,0,0,5],[1,1,0,0,-5]];perimeter=orthogonalPerimeter;outlineConnect=0;targetShapes=umlLifeline;portConstraint=eastwest;newEdgeStyle={&quot;curved&quot;:0,&quot;rounded&quot;:0};" parent="1" vertex="1">
          <mxGeometry x="1631" y="855" width="10" height="53" as="geometry" />
        </mxCell>
        <mxCell id="4NDNY2ZOt2ilyVrcRyLL-38" value="17. saved email authentication provider" style="html=1;verticalAlign=bottom;endArrow=open;dashed=1;endSize=8;curved=0;rounded=0;entryX=1;entryY=0.782;entryDx=0;entryDy=0;entryPerimeter=0;" parent="1" source="4NDNY2ZOt2ilyVrcRyLL-37" edge="1">
          <mxGeometry relative="1" as="geometry">
            <mxPoint x="1600" y="899" as="sourcePoint" />
            <mxPoint x="691" y="900.02" as="targetPoint" />
          </mxGeometry>
        </mxCell>
        <mxCell id="QB9IPV3vQLYuo9bEY_cD-1" value="" style="html=1;points=[[0,0,0,0,5],[0,1,0,0,-5],[1,0,0,0,5],[1,1,0,0,-5]];perimeter=orthogonalPerimeter;outlineConnect=0;targetShapes=umlLifeline;portConstraint=eastwest;newEdgeStyle={&quot;curved&quot;:0,&quot;rounded&quot;:0};" parent="1" vertex="1">
          <mxGeometry x="681" y="380" width="10" height="40" as="geometry" />
        </mxCell>
        <mxCell id="QB9IPV3vQLYuo9bEY_cD-2" value="7. find authentication provider" style="html=1;align=left;spacingLeft=2;endArrow=block;rounded=0;edgeStyle=orthogonalEdgeStyle;curved=0;rounded=0;" parent="1" target="QB9IPV3vQLYuo9bEY_cD-1" edge="1">
          <mxGeometry relative="1" as="geometry">
            <mxPoint x="686" y="360" as="sourcePoint" />
            <Array as="points">
              <mxPoint x="716" y="390" />
            </Array>
          </mxGeometry>
        </mxCell>
        <mxCell id="QB9IPV3vQLYuo9bEY_cD-3" value="" style="html=1;points=[[0,0,0,0,5],[0,1,0,0,-5],[1,0,0,0,5],[1,1,0,0,-5]];perimeter=orthogonalPerimeter;outlineConnect=0;targetShapes=umlLifeline;portConstraint=eastwest;newEdgeStyle={&quot;curved&quot;:0,&quot;rounded&quot;:0};" parent="1" vertex="1">
          <mxGeometry x="1375" y="398" width="10" height="70" as="geometry" />
        </mxCell>
        <mxCell id="QB9IPV3vQLYuo9bEY_cD-4" value="8. find email authentication provider" style="html=1;verticalAlign=bottom;endArrow=block;curved=0;rounded=0;exitX=0.9;exitY=0.302;exitDx=0;exitDy=0;exitPerimeter=0;" parent="1" edge="1">
          <mxGeometry width="80" relative="1" as="geometry">
            <mxPoint x="685" y="407.7439999999999" as="sourcePoint" />
            <mxPoint x="1375" y="411" as="targetPoint" />
          </mxGeometry>
        </mxCell>
        <mxCell id="QB9IPV3vQLYuo9bEY_cD-5" value="9. saved email authentication provider" style="html=1;verticalAlign=bottom;endArrow=open;dashed=1;endSize=8;curved=0;rounded=0;entryX=0.9;entryY=0.367;entryDx=0;entryDy=0;entryPerimeter=0;" parent="1" edge="1">
          <mxGeometry relative="1" as="geometry">
            <mxPoint x="1375" y="457.924" as="sourcePoint" />
            <mxPoint x="685" y="457.924" as="targetPoint" />
          </mxGeometry>
        </mxCell>
        <mxCell id="48BpLpDfLevbt94DJnmV-1" value="14. update user" style="html=1;verticalAlign=bottom;endArrow=block;curved=0;rounded=0;entryX=0;entryY=0.226;entryDx=0;entryDy=0;entryPerimeter=0;" parent="1" target="48BpLpDfLevbt94DJnmV-2" edge="1">
          <mxGeometry width="80" relative="1" as="geometry">
            <mxPoint x="691" y="797.9780000000001" as="sourcePoint" />
            <mxPoint x="910" y="795" as="targetPoint" />
          </mxGeometry>
        </mxCell>
        <mxCell id="48BpLpDfLevbt94DJnmV-2" value="" style="html=1;points=[[0,0,0,0,5],[0,1,0,0,-5],[1,0,0,0,5],[1,1,0,0,-5]];perimeter=orthogonalPerimeter;outlineConnect=0;targetShapes=umlLifeline;portConstraint=eastwest;newEdgeStyle={&quot;curved&quot;:0,&quot;rounded&quot;:0};" parent="1" vertex="1">
          <mxGeometry x="1631" y="786" width="10" height="53" as="geometry" />
        </mxCell>
        <mxCell id="48BpLpDfLevbt94DJnmV-3" value="15. saved user" style="html=1;verticalAlign=bottom;endArrow=open;dashed=1;endSize=8;curved=0;rounded=0;entryX=1;entryY=0.782;entryDx=0;entryDy=0;entryPerimeter=0;" parent="1" source="48BpLpDfLevbt94DJnmV-2" edge="1">
          <mxGeometry relative="1" as="geometry">
            <mxPoint x="1600" y="830" as="sourcePoint" />
            <mxPoint x="691" y="831.02" as="targetPoint" />
          </mxGeometry>
        </mxCell>
      </root>
    </mxGraphModel>
  </diagram>
  <diagram id="GVGLjLXABJXdWta5G6IP" name="Activate-Email">
    <mxGraphModel dx="1463" dy="872" grid="1" gridSize="10" guides="1" tooltips="1" connect="1" arrows="1" fold="1" page="1" pageScale="1" pageWidth="850" pageHeight="1100" math="0" shadow="0">
      <root>
        <mxCell id="0" />
        <mxCell id="1" parent="0" />
        <mxCell id="nF8K2072PbOT6wpR-vv6-2" value="" style="shape=umlLifeline;perimeter=lifelinePerimeter;whiteSpace=wrap;html=1;container=1;dropTarget=0;collapsible=0;recursiveResize=0;outlineConnect=0;portConstraint=eastwest;newEdgeStyle={&quot;curved&quot;:0,&quot;rounded&quot;:0};participant=umlActor;" parent="1" vertex="1">
          <mxGeometry x="70" y="80" width="20" height="630" as="geometry" />
        </mxCell>
        <mxCell id="nWD11P_MdMhx5NQy8V2B-1" value="" style="html=1;points=[[0,0,0,0,5],[0,1,0,0,-5],[1,0,0,0,5],[1,1,0,0,-5]];perimeter=orthogonalPerimeter;outlineConnect=0;targetShapes=umlLifeline;portConstraint=eastwest;newEdgeStyle={&quot;curved&quot;:0,&quot;rounded&quot;:0};" parent="nF8K2072PbOT6wpR-vv6-2" vertex="1">
          <mxGeometry x="5" y="60" width="10" height="510" as="geometry" />
        </mxCell>
        <mxCell id="nWD11P_MdMhx5NQy8V2B-2" value="AuthController" style="shape=umlLifeline;perimeter=lifelinePerimeter;whiteSpace=wrap;html=1;container=1;dropTarget=0;collapsible=0;recursiveResize=0;outlineConnect=0;portConstraint=eastwest;newEdgeStyle={&quot;curved&quot;:0,&quot;rounded&quot;:0};" parent="1" vertex="1">
          <mxGeometry x="220" y="80" width="100" height="630" as="geometry" />
        </mxCell>
        <mxCell id="nWD11P_MdMhx5NQy8V2B-4" value="" style="html=1;points=[[0,0,0,0,5],[0,1,0,0,-5],[1,0,0,0,5],[1,1,0,0,-5]];perimeter=orthogonalPerimeter;outlineConnect=0;targetShapes=umlLifeline;portConstraint=eastwest;newEdgeStyle={&quot;curved&quot;:0,&quot;rounded&quot;:0};" parent="nWD11P_MdMhx5NQy8V2B-2" vertex="1">
          <mxGeometry x="45" y="60" width="10" height="510" as="geometry" />
        </mxCell>
        <mxCell id="nWD11P_MdMhx5NQy8V2B-3" value="1. verify email" style="html=1;verticalAlign=bottom;endArrow=block;curved=0;rounded=0;entryX=-0.189;entryY=0.269;entryDx=0;entryDy=0;entryPerimeter=0;" parent="1" edge="1">
          <mxGeometry width="80" relative="1" as="geometry">
            <mxPoint x="85" y="155.08000000000004" as="sourcePoint" />
            <mxPoint x="263.1099999999999" y="155.08000000000004" as="targetPoint" />
          </mxGeometry>
        </mxCell>
        <mxCell id="nWD11P_MdMhx5NQy8V2B-5" value="AuthService" style="shape=umlLifeline;perimeter=lifelinePerimeter;whiteSpace=wrap;html=1;container=1;dropTarget=0;collapsible=0;recursiveResize=0;outlineConnect=0;portConstraint=eastwest;newEdgeStyle={&quot;curved&quot;:0,&quot;rounded&quot;:0};" parent="1" vertex="1">
          <mxGeometry x="430" y="80" width="100" height="630" as="geometry" />
        </mxCell>
        <mxCell id="fZ-fNzzVLEGCk9ZO5YgB-1" value="" style="html=1;points=[[0,0,0,0,5],[0,1,0,0,-5],[1,0,0,0,5],[1,1,0,0,-5]];perimeter=orthogonalPerimeter;outlineConnect=0;targetShapes=umlLifeline;portConstraint=eastwest;newEdgeStyle={&quot;curved&quot;:0,&quot;rounded&quot;:0};" parent="nWD11P_MdMhx5NQy8V2B-5" vertex="1">
          <mxGeometry x="45" y="60" width="10" height="470" as="geometry" />
        </mxCell>
        <mxCell id="fZ-fNzzVLEGCk9ZO5YgB-3" value="" style="html=1;points=[[0,0,0,0,5],[0,1,0,0,-5],[1,0,0,0,5],[1,1,0,0,-5]];perimeter=orthogonalPerimeter;outlineConnect=0;targetShapes=umlLifeline;portConstraint=eastwest;newEdgeStyle={&quot;curved&quot;:0,&quot;rounded&quot;:0};" parent="nWD11P_MdMhx5NQy8V2B-5" vertex="1">
          <mxGeometry x="50" y="150" width="10" height="80" as="geometry" />
        </mxCell>
        <mxCell id="fZ-fNzzVLEGCk9ZO5YgB-4" value="3. find email auth provider" style="html=1;align=left;spacingLeft=2;endArrow=block;rounded=0;edgeStyle=orthogonalEdgeStyle;curved=0;rounded=0;" parent="nWD11P_MdMhx5NQy8V2B-5" target="fZ-fNzzVLEGCk9ZO5YgB-3" edge="1">
          <mxGeometry relative="1" as="geometry">
            <mxPoint x="55" y="130" as="sourcePoint" />
            <Array as="points">
              <mxPoint x="85" y="160" />
            </Array>
          </mxGeometry>
        </mxCell>
        <mxCell id="fZ-fNzzVLEGCk9ZO5YgB-2" value="2. verify email" style="html=1;verticalAlign=bottom;endArrow=block;curved=0;rounded=0;exitX=0.978;exitY=0.624;exitDx=0;exitDy=0;exitPerimeter=0;" parent="1" edge="1">
          <mxGeometry width="80" relative="1" as="geometry">
            <mxPoint x="274.78" y="182.67999999999995" as="sourcePoint" />
            <mxPoint x="475" y="182.67999999999995" as="targetPoint" />
          </mxGeometry>
        </mxCell>
        <mxCell id="fZ-fNzzVLEGCk9ZO5YgB-5" value="Database" style="shape=umlLifeline;perimeter=lifelinePerimeter;whiteSpace=wrap;html=1;container=1;dropTarget=0;collapsible=0;recursiveResize=0;outlineConnect=0;portConstraint=eastwest;newEdgeStyle={&quot;curved&quot;:0,&quot;rounded&quot;:0};" parent="1" vertex="1">
          <mxGeometry x="1050" y="80" width="100" height="630" as="geometry" />
        </mxCell>
        <mxCell id="fZ-fNzzVLEGCk9ZO5YgB-7" value="" style="html=1;points=[[0,0,0,0,5],[0,1,0,0,-5],[1,0,0,0,5],[1,1,0,0,-5]];perimeter=orthogonalPerimeter;outlineConnect=0;targetShapes=umlLifeline;portConstraint=eastwest;newEdgeStyle={&quot;curved&quot;:0,&quot;rounded&quot;:0};" parent="fZ-fNzzVLEGCk9ZO5YgB-5" vertex="1">
          <mxGeometry x="45" y="170" width="10" height="50" as="geometry" />
        </mxCell>
        <mxCell id="5zrP_om-qweqc4D2yPpg-3" value="" style="html=1;points=[[0,0,0,0,5],[0,1,0,0,-5],[1,0,0,0,5],[1,1,0,0,-5]];perimeter=orthogonalPerimeter;outlineConnect=0;targetShapes=umlLifeline;portConstraint=eastwest;newEdgeStyle={&quot;curved&quot;:0,&quot;rounded&quot;:0};" parent="fZ-fNzzVLEGCk9ZO5YgB-5" vertex="1">
          <mxGeometry x="45" y="418" width="10" height="52" as="geometry" />
        </mxCell>
        <mxCell id="fZ-fNzzVLEGCk9ZO5YgB-6" value="4. find email auth provider" style="html=1;verticalAlign=bottom;endArrow=block;curved=0;rounded=0;" parent="1" target="fZ-fNzzVLEGCk9ZO5YgB-7" edge="1">
          <mxGeometry width="80" relative="1" as="geometry">
            <mxPoint x="490" y="265" as="sourcePoint" />
            <mxPoint x="735" y="265" as="targetPoint" />
          </mxGeometry>
        </mxCell>
        <mxCell id="fZ-fNzzVLEGCk9ZO5YgB-8" value="5. email auth provider" style="html=1;verticalAlign=bottom;endArrow=open;dashed=1;endSize=8;curved=0;rounded=0;" parent="1" source="fZ-fNzzVLEGCk9ZO5YgB-7" edge="1">
          <mxGeometry relative="1" as="geometry">
            <mxPoint x="735" y="291" as="sourcePoint" />
            <mxPoint x="490" y="291" as="targetPoint" />
          </mxGeometry>
        </mxCell>
        <mxCell id="fZ-fNzzVLEGCk9ZO5YgB-11" value="Alt" style="shape=umlFrame;whiteSpace=wrap;html=1;pointerEvents=0;" parent="1" vertex="1">
          <mxGeometry x="10" y="330" width="1150" height="350" as="geometry" />
        </mxCell>
        <mxCell id="fZ-fNzzVLEGCk9ZO5YgB-12" value="[invalid activation code]" style="text;html=1;align=center;verticalAlign=middle;resizable=0;points=[];autosize=1;strokeColor=none;fillColor=none;" parent="1" vertex="1">
          <mxGeometry x="90" y="330" width="150" height="30" as="geometry" />
        </mxCell>
        <mxCell id="fZ-fNzzVLEGCk9ZO5YgB-14" value="" style="endArrow=none;dashed=1;html=1;rounded=0;entryX=0;entryY=0.427;entryDx=0;entryDy=0;entryPerimeter=0;" parent="1" edge="1">
          <mxGeometry width="50" height="50" relative="1" as="geometry">
            <mxPoint x="1160" y="430" as="sourcePoint" />
            <mxPoint x="10" y="430.4" as="targetPoint" />
          </mxGeometry>
        </mxCell>
        <mxCell id="fZ-fNzzVLEGCk9ZO5YgB-15" value="6. throw invalid code error" style="html=1;verticalAlign=bottom;endArrow=open;dashed=1;endSize=8;curved=0;rounded=0;" parent="1" edge="1">
          <mxGeometry relative="1" as="geometry">
            <mxPoint x="475" y="360" as="sourcePoint" />
            <mxPoint x="275" y="360" as="targetPoint" />
          </mxGeometry>
        </mxCell>
        <mxCell id="fZ-fNzzVLEGCk9ZO5YgB-16" value="7. show invalid code error" style="html=1;verticalAlign=bottom;endArrow=open;dashed=1;endSize=8;curved=0;rounded=0;entryX=1.089;entryY=0.809;entryDx=0;entryDy=0;entryPerimeter=0;" parent="1" edge="1">
          <mxGeometry relative="1" as="geometry">
            <mxPoint x="265" y="400.2400000000001" as="sourcePoint" />
            <mxPoint x="85.8900000000001" y="400.2400000000001" as="targetPoint" />
          </mxGeometry>
        </mxCell>
        <mxCell id="fZ-fNzzVLEGCk9ZO5YgB-17" value="[valid activation code]" style="text;html=1;align=center;verticalAlign=middle;resizable=0;points=[];autosize=1;strokeColor=none;fillColor=none;" parent="1" vertex="1">
          <mxGeometry x="90" y="430" width="140" height="30" as="geometry" />
        </mxCell>
        <mxCell id="5zrP_om-qweqc4D2yPpg-1" value="" style="html=1;points=[[0,0,0,0,5],[0,1,0,0,-5],[1,0,0,0,5],[1,1,0,0,-5]];perimeter=orthogonalPerimeter;outlineConnect=0;targetShapes=umlLifeline;portConstraint=eastwest;newEdgeStyle={&quot;curved&quot;:0,&quot;rounded&quot;:0};" parent="1" vertex="1">
          <mxGeometry x="480" y="470" width="10" height="80" as="geometry" />
        </mxCell>
        <mxCell id="5zrP_om-qweqc4D2yPpg-2" value="8. change email auth provider status to verified no password and store the access token for the set password step" style="html=1;align=left;spacingLeft=2;endArrow=block;rounded=0;edgeStyle=orthogonalEdgeStyle;curved=0;rounded=0;" parent="1" target="5zrP_om-qweqc4D2yPpg-1" edge="1">
          <mxGeometry relative="1" as="geometry">
            <mxPoint x="485" y="450" as="sourcePoint" />
            <Array as="points">
              <mxPoint x="515" y="480" />
            </Array>
          </mxGeometry>
        </mxCell>
        <mxCell id="5zrP_om-qweqc4D2yPpg-4" value="9. update email auth provider" style="html=1;verticalAlign=bottom;endArrow=block;curved=0;rounded=0;" parent="1" target="5zrP_om-qweqc4D2yPpg-3" edge="1">
          <mxGeometry width="80" relative="1" as="geometry">
            <mxPoint x="490" y="510" as="sourcePoint" />
            <mxPoint x="570" y="510" as="targetPoint" />
          </mxGeometry>
        </mxCell>
        <mxCell id="5zrP_om-qweqc4D2yPpg-5" value="10. updated email auth provider" style="html=1;verticalAlign=bottom;endArrow=open;dashed=1;endSize=8;curved=0;rounded=0;" parent="1" edge="1" source="5zrP_om-qweqc4D2yPpg-3">
          <mxGeometry relative="1" as="geometry">
            <mxPoint x="835" y="537" as="sourcePoint" />
            <mxPoint x="490" y="537" as="targetPoint" />
          </mxGeometry>
        </mxCell>
        <mxCell id="ktjlUUBpNF-uBc61sqtA-1" value="11. access token" style="html=1;verticalAlign=bottom;endArrow=open;dashed=1;endSize=8;curved=0;rounded=0;" edge="1" parent="1">
          <mxGeometry relative="1" as="geometry">
            <mxPoint x="470" y="590" as="sourcePoint" />
            <mxPoint x="280" y="590" as="targetPoint" />
          </mxGeometry>
        </mxCell>
        <mxCell id="ktjlUUBpNF-uBc61sqtA-2" value="12. go to the set password step" style="html=1;verticalAlign=bottom;endArrow=open;dashed=1;endSize=8;curved=0;rounded=0;" edge="1" parent="1">
          <mxGeometry relative="1" as="geometry">
            <mxPoint x="265" y="630" as="sourcePoint" />
            <mxPoint x="85" y="630" as="targetPoint" />
          </mxGeometry>
        </mxCell>
      </root>
    </mxGraphModel>
  </diagram>
  <diagram id="_cOk05UfA5ghy3qoBsFE" name="Set-Password">
    <mxGraphModel dx="1463" dy="872" grid="1" gridSize="10" guides="1" tooltips="1" connect="1" arrows="1" fold="1" page="1" pageScale="1" pageWidth="850" pageHeight="1100" math="0" shadow="0">
      <root>
        <mxCell id="0" />
        <mxCell id="1" parent="0" />
        <mxCell id="sxLtst_5rXg6Z9DwiRO4-1" value="" style="shape=umlLifeline;perimeter=lifelinePerimeter;whiteSpace=wrap;html=1;container=1;dropTarget=0;collapsible=0;recursiveResize=0;outlineConnect=0;portConstraint=eastwest;newEdgeStyle={&quot;curved&quot;:0,&quot;rounded&quot;:0};participant=umlActor;" vertex="1" parent="1">
          <mxGeometry x="70" y="60" width="20" height="300" as="geometry" />
        </mxCell>
        <mxCell id="sxLtst_5rXg6Z9DwiRO4-4" value="" style="html=1;points=[[0,0,0,0,5],[0,1,0,0,-5],[1,0,0,0,5],[1,1,0,0,-5]];perimeter=orthogonalPerimeter;outlineConnect=0;targetShapes=umlLifeline;portConstraint=eastwest;newEdgeStyle={&quot;curved&quot;:0,&quot;rounded&quot;:0};" vertex="1" parent="sxLtst_5rXg6Z9DwiRO4-1">
          <mxGeometry x="5" y="70" width="10" height="190" as="geometry" />
        </mxCell>
        <mxCell id="sxLtst_5rXg6Z9DwiRO4-2" value="AuthController" style="shape=umlLifeline;perimeter=lifelinePerimeter;whiteSpace=wrap;html=1;container=1;dropTarget=0;collapsible=0;recursiveResize=0;outlineConnect=0;portConstraint=eastwest;newEdgeStyle={&quot;curved&quot;:0,&quot;rounded&quot;:0};" vertex="1" parent="1">
          <mxGeometry x="280" y="60" width="100" height="300" as="geometry" />
        </mxCell>
        <mxCell id="sxLtst_5rXg6Z9DwiRO4-5" value="" style="html=1;points=[[0,0,0,0,5],[0,1,0,0,-5],[1,0,0,0,5],[1,1,0,0,-5]];perimeter=orthogonalPerimeter;outlineConnect=0;targetShapes=umlLifeline;portConstraint=eastwest;newEdgeStyle={&quot;curved&quot;:0,&quot;rounded&quot;:0};" vertex="1" parent="sxLtst_5rXg6Z9DwiRO4-2">
          <mxGeometry x="45" y="70" width="10" height="190" as="geometry" />
        </mxCell>
        <mxCell id="sxLtst_5rXg6Z9DwiRO4-3" value="AuthService" style="shape=umlLifeline;perimeter=lifelinePerimeter;whiteSpace=wrap;html=1;container=1;dropTarget=0;collapsible=0;recursiveResize=0;outlineConnect=0;portConstraint=eastwest;newEdgeStyle={&quot;curved&quot;:0,&quot;rounded&quot;:0};" vertex="1" parent="1">
          <mxGeometry x="534" y="60" width="100" height="380" as="geometry" />
        </mxCell>
        <mxCell id="sxLtst_5rXg6Z9DwiRO4-8" value="" style="html=1;points=[[0,0,0,0,5],[0,1,0,0,-5],[1,0,0,0,5],[1,1,0,0,-5]];perimeter=orthogonalPerimeter;outlineConnect=0;targetShapes=umlLifeline;portConstraint=eastwest;newEdgeStyle={&quot;curved&quot;:0,&quot;rounded&quot;:0};" vertex="1" parent="sxLtst_5rXg6Z9DwiRO4-3">
          <mxGeometry x="45" y="120" width="10" height="190" as="geometry" />
        </mxCell>
        <mxCell id="sxLtst_5rXg6Z9DwiRO4-6" value="1. set password" style="html=1;verticalAlign=bottom;endArrow=block;curved=0;rounded=0;" edge="1" parent="1">
          <mxGeometry width="80" relative="1" as="geometry">
            <mxPoint x="85" y="161" as="sourcePoint" />
            <mxPoint x="325" y="161" as="targetPoint" />
          </mxGeometry>
        </mxCell>
        <mxCell id="sxLtst_5rXg6Z9DwiRO4-7" value="2. set password" style="html=1;verticalAlign=bottom;endArrow=block;curved=0;rounded=0;" edge="1" parent="1">
          <mxGeometry width="80" relative="1" as="geometry">
            <mxPoint x="335" y="200" as="sourcePoint" />
            <mxPoint x="575" y="200" as="targetPoint" />
          </mxGeometry>
        </mxCell>
        <mxCell id="FvUo_Yj-_8i1-aojeZ2y-1" value="" style="html=1;points=[[0,0,0,0,5],[0,1,0,0,-5],[1,0,0,0,5],[1,1,0,0,-5]];perimeter=orthogonalPerimeter;outlineConnect=0;targetShapes=umlLifeline;portConstraint=eastwest;newEdgeStyle={&quot;curved&quot;:0,&quot;rounded&quot;:0};" vertex="1" parent="1">
          <mxGeometry x="586" y="243" width="10" height="80" as="geometry" />
        </mxCell>
        <mxCell id="FvUo_Yj-_8i1-aojeZ2y-2" value="3. find email auth provider" style="html=1;align=left;spacingLeft=2;endArrow=block;rounded=0;edgeStyle=orthogonalEdgeStyle;curved=0;rounded=0;" edge="1" parent="1" target="FvUo_Yj-_8i1-aojeZ2y-1">
          <mxGeometry relative="1" as="geometry">
            <mxPoint x="591" y="223" as="sourcePoint" />
            <Array as="points">
              <mxPoint x="621" y="253" />
            </Array>
          </mxGeometry>
        </mxCell>
        <mxCell id="FvUo_Yj-_8i1-aojeZ2y-4" value="4. find email auth provider" style="html=1;verticalAlign=bottom;endArrow=block;curved=0;rounded=0;" edge="1" parent="1" target="FvUo_Yj-_8i1-aojeZ2y-3">
          <mxGeometry width="80" relative="1" as="geometry">
            <mxPoint x="596" y="278" as="sourcePoint" />
            <mxPoint x="841" y="278" as="targetPoint" />
          </mxGeometry>
        </mxCell>
        <mxCell id="FvUo_Yj-_8i1-aojeZ2y-5" value="5. email auth provider" style="html=1;verticalAlign=bottom;endArrow=open;dashed=1;endSize=8;curved=0;rounded=0;" edge="1" parent="1" source="FvUo_Yj-_8i1-aojeZ2y-3">
          <mxGeometry relative="1" as="geometry">
            <mxPoint x="841" y="304" as="sourcePoint" />
            <mxPoint x="596" y="304" as="targetPoint" />
          </mxGeometry>
        </mxCell>
        <mxCell id="FvUo_Yj-_8i1-aojeZ2y-6" value="Database" style="shape=umlLifeline;perimeter=lifelinePerimeter;whiteSpace=wrap;html=1;container=1;dropTarget=0;collapsible=0;recursiveResize=0;outlineConnect=0;portConstraint=eastwest;newEdgeStyle={&quot;curved&quot;:0,&quot;rounded&quot;:0};" vertex="1" parent="1">
          <mxGeometry x="929" y="60" width="100" height="300" as="geometry" />
        </mxCell>
        <mxCell id="FvUo_Yj-_8i1-aojeZ2y-3" value="" style="html=1;points=[[0,0,0,0,5],[0,1,0,0,-5],[1,0,0,0,5],[1,1,0,0,-5]];perimeter=orthogonalPerimeter;outlineConnect=0;targetShapes=umlLifeline;portConstraint=eastwest;newEdgeStyle={&quot;curved&quot;:0,&quot;rounded&quot;:0};" vertex="1" parent="1">
          <mxGeometry x="974" y="263" width="10" height="50" as="geometry" />
        </mxCell>
      </root>
    </mxGraphModel>
  </diagram>
</mxfile>
